Coordinates
version=1
nRows=26
nColumns=24
inDegrees=yes

Units are S.I. units (second, meters, Newtons, ...)
Angles are in degrees.

endheader
time	pelvis_tilt	pelvis_list	pelvis_rotation	pelvis_tx	pelvis_ty	pelvis_tz	hip_flexion_r	hip_adduction_r	hip_rotation_r	knee_angle_r	ankle_angle_r	subtalar_angle_r	mtp_angle_r	hip_flexion_l	hip_adduction_l	hip_rotation_l	knee_angle_l	ankle_angle_l	subtalar_angle_l	mtp_angle_l	lumbar_extension	lumbar_bending	lumbar_rotation
      5.00000000	      7.15478457	      1.51900396	     -2.39277336	      2.45096182	      0.91271965	     -0.29852319	     10.07516660	     -0.08314863	     -2.17994480	     -7.61914992	     12.72522393	      6.57634906	      0.00000000	    -18.26995393	      5.36595935	     -4.40320421	    -26.47572340	      3.72883128	     -5.49352198	      0.00000000	    -26.41627787	      1.13329029	    -10.36866991
      5.01000000	      7.24798831	      0.99125548	     -2.29726247	      2.46654211	      0.91199929	     -0.29643866	     10.12531931	      0.58402136	     -2.34546819	     -9.61068136	     12.83542213	      6.22013038	      0.00000000	    -16.03327503	      3.98261435	     -5.86861506	    -31.49478219	      0.89809570	     -4.59909793	      0.00000000	    -26.54718526	      1.65922395	     -9.49085919
      5.02000000	      7.16037098	      0.40937181	     -2.23892847	      2.48131607	      0.91121871	     -0.29452951	     10.62533430	      1.24844071	     -2.86403437	    -12.08300394	     13.65400422	      6.61686995	      0.00000000	    -13.35386271	      2.54214735	     -6.94037236	    -36.60597776	     -2.19990756	     -4.15713567	      0.00000000	    -26.63109452	      2.26035452	     -8.49030004
      5.03000000	      6.97955699	     -0.20207546	     -2.20483465	      2.49551348	      0.91052817	     -0.29274919	     11.19755376	      1.95546898	     -3.07744224	    -14.52090102	     14.72895361	      6.84086961	      0.00000000	    -10.43104106	      1.09433277	     -7.66800666	    -41.61993328	     -5.11858791	     -3.92686007	      0.00000000	    -26.72529184	      2.87758310	     -7.34386973
      5.04000000	      6.86591089	     -0.88732929	     -1.88270327	      2.50952376	      0.91023951	     -0.29152150	     11.46156330	      2.66232158	     -3.62769010	    -16.59458976	     16.10396826	      7.36323270	      0.00000000	     -7.50086153	     -0.41569785	     -7.82768960	    -46.41220612	     -7.32978388	     -3.77339596	      0.00000000	    -26.93115832	      3.68037517	     -6.40496271
      5.05000000	      6.87178615	     -1.65977678	     -1.07751829	      2.52381575	      0.91056757	     -0.29089188	     11.05748315	      3.47541894	     -4.08316215	    -17.78107629	     17.19931322	      7.15448921	      0.00000000	     -4.67346348	     -1.97934305	     -7.29990792	    -50.84288835	     -8.53951965	     -3.51073468	      0.00000000	    -27.19039820	      4.71679178	     -5.77816579
      5.06000000	      7.09696766	     -2.45055011	      0.32035454	      2.53866062	      0.91168631	     -0.29099293	      9.85554751	      4.29495522	     -4.89356923	    -18.02968152	     18.18234685	      6.74217591	      0.00000000	     -2.08455462	     -3.46103354	     -6.06546463	    -54.77117546	     -8.74206248	     -3.29385551	      0.00000000	    -27.52861221	      5.95754494	     -5.62287967
      5.07000000	      7.46549497	     -3.13258587	      2.23205593	      2.55398327	      0.91346865	     -0.29169839	      7.96425194	      5.07683886	     -5.92674972	    -17.32298306	     18.88906902	      6.05464719	      0.00000000	      0.34813868	     -4.65640295	     -4.23980801	    -58.13636692	     -8.06721780	     -3.15739099	      0.00000000	    -27.82809932	      7.24449308	     -5.87502823
      5.08000000	      7.85730294	     -3.57951039	      4.36515890	      2.56951287	      0.91567775	     -0.29262592	      5.62413142	      5.78892999	     -6.84387088	    -15.81237125	     19.26497693	      5.06551408	      0.00000000	      2.70006880	     -5.41483879	     -2.20875900	    -60.90086298	     -6.68516597	     -3.02955410	      0.00000000	    -27.99470134	      8.33639141	     -6.42672350
      5.09000000	      8.17708234	     -3.71824413	      6.44828625	      2.58494930	      0.91811886	     -0.29350130	      3.07979950	      6.36796196	     -7.43850727	    -13.74767827	     19.20795610	      3.60345683	      0.00000000	      4.99839654	     -5.64389311	     -0.28419037	    -63.05206481	     -5.06474336	     -3.06928420	      0.00000000	    -28.03798853	      9.05417347	     -7.03510320
      5.10000000	      8.31884907	     -3.50451489	      8.30693617	      2.60021476	      0.92062073	     -0.29422824	      0.56311698	      6.67990873	     -7.82344992	    -11.40834445	     18.87520937	      2.08480110	      0.00000000	      7.25555212	     -5.29723059	      1.32299699	    -64.58615070	     -3.30106133	     -3.19985422	      0.00000000	    -27.90934096	      9.29001208	     -7.65607001
      5.11000000	      8.24227574	     -3.02649251	      9.84154595	      2.61534405	      0.92304308	     -0.29471206	     -1.79816956	      6.74483314	     -8.05980123	     -8.98616568	     18.37202010	      0.71197557	      0.00000000	      9.46708552	     -4.51868570	      2.48105515	    -65.54240781	     -1.57720348	     -3.30083256	      0.00000000	    -27.60587695	      9.09179588	     -8.19322001
      5.12000000	      7.96814984	     -2.40136583	     11.04822304	      2.63031399	      0.92525241	     -0.29501041	     -3.88945910	      6.61044082	     -8.46431738	     -6.71501416	     17.97908811	     -0.20002005	      0.00000000	     11.62507682	     -3.47387271	      3.19306800	    -65.98938173	      0.05018787	     -3.28103594	      0.00000000	    -27.17629398	      8.59901130	     -8.50997327
      5.13000000	      7.53095140	     -1.66643717	     11.92215415	      2.64514434	      0.92721948	     -0.29511097	     -5.74959274	      6.30929664	     -8.81311915	     -4.58464314	     17.47133588	     -0.90638881	      0.00000000	     13.68642710	     -2.24631707	      3.46465941	    -65.93495235	      1.39295383	     -3.29050308	      0.00000000	    -26.66091596	      7.85166224	     -8.67028541
      5.14000000	      7.03523454	     -0.92608789	     12.57006109	      2.65968395	      0.92889251	     -0.29515549	     -7.36458968	      5.93949109	     -9.53133163	     -2.75407497	     17.22101985	     -0.95695207	      0.00000000	     15.61994445	     -0.97482150	      3.44213079	    -65.46726313	      2.48682122	     -3.31966638	      0.00000000	    -26.18284506	      7.03622979	     -8.62800814
      5.15000000	      6.47203815	     -0.31597050	     13.03994108	      2.67383875	      0.93007704	     -0.29513792	     -8.73054621	      5.66232205	    -10.12963132	     -1.14055105	     16.90468966	     -1.03141310	      0.00000000	     17.52735853	      0.16205873	      3.19436086	    -64.68877617	      3.56689387	     -3.16525180	      0.00000000	    -25.70047038	      6.32139143	     -8.39294240
      5.16000000	      5.95234406	      0.18772496	     13.40099201	      2.68749912	      0.93090889	     -0.29513991	     -9.94406875	      5.46955645	    -10.68525347	      0.22513937	     16.59370669	     -1.08093502	      0.00000000	     19.29918962	      1.18783436	      2.82988932	    -63.59073711	      4.43502048	     -3.03074415	      0.00000000	    -25.35986462	      5.73390425	     -7.98217644
      5.17000000	      5.52286968	      0.55339783	     13.70470507	      2.70073388	      0.93142072	     -0.29520012	    -11.05687203	      5.41002341	    -11.20707124	      1.35291144	     16.30541818	     -1.08783198	      0.00000000	     20.89865563	      2.06340255	      2.43302160	    -62.19119274	      5.13959427	     -2.91147642	      0.00000000	    -25.18633800	      5.34141597	     -7.45926863
      5.18000000	      5.18867284	      0.76142967	     13.92972893	      2.71381451	      0.93162678	     -0.29525928	    -12.10085312	      5.50335119	    -11.57678372	      2.26597671	     16.00993202	     -1.15245443	      0.00000000	     22.29611472	      2.73810512	      2.00376684	    -60.48703556	      5.84691971	     -2.68187144	      0.00000000	    -25.12890782	      5.14710111	     -6.81844397
      5.19000000	      4.98998435	      0.86576142	     13.98123884	      2.72712448	      0.93164785	     -0.29518899	    -13.18116710	      5.68503187	    -11.63128889	      3.00590482	     15.68810983	     -1.37355009	      0.00000000	     23.37465412	      3.20727758	      1.46130204	    -58.43466602	      6.60857335	     -2.39906221	      0.00000000	    -25.19833036	      5.05606899	     -6.01250967
      5.20000000	      4.83025304	      0.96748684	     13.79888371	      2.74094558	      0.93150633	     -0.29491215	    -14.26503211	      5.80439739	    -11.22342037	      3.61256906	     15.25330789	     -1.92904064	      0.00000000	     24.15679422	      3.57444662	      0.75676354	    -55.96898322	      7.22671322	     -2.10306238	      0.00000000	    -25.26847992	      4.88886672	     -5.05715761
      5.21000000	      4.71634268	      0.99663429	     13.37241678	      2.75532888	      0.93123347	     -0.29438737	    -15.24030892	      5.92208721	    -10.96680114	      3.90960731	     15.19317211	     -1.79402386	      0.00000000	     24.65660976	      3.75044787	     -0.08426042	    -53.12920592	      7.87958992	     -1.69024172	      0.00000000	    -25.32683594	      4.71426879	     -3.91083264
      5.22000000	      4.71164254	      1.08092129	     12.81421885	      2.77019544	      0.93092495	     -0.29375175	    -16.36144207	      5.94453644	    -10.22636236	      4.16424749	     14.87787331	     -2.28921285	      0.00000000	     24.76756459	      3.90580215	     -0.97896971	    -49.89762389	      8.57516304	     -1.19243697	      0.00000000	    -25.47151186	      4.43970913	     -2.80430335
      5.23000000	      4.71528890	      1.09215578	     12.20969319	      2.78534654	      0.93046472	     -0.29310271	    -17.34554580	      5.99353234	     -9.77996551	      4.15302986	     14.86654792	     -2.16820493	      0.00000000	     24.66674280	      3.99639941	     -1.75869622	    -46.33960639	      9.21799786	     -0.62194736	      0.00000000	    -25.58175860	      4.21524160	     -1.71713917
      5.24000000	      4.77280650	      1.11296202	     11.66601049	      2.80070367	      0.92991165	     -0.29256898	    -18.35413575	      6.02662684	     -9.31139847	      4.03942334	     14.83750089	     -2.14604104	      0.00000000	     24.27696633	      4.16801689	     -2.27013096	    -42.44815419	      9.73417913	     -0.07033269	      0.00000000	    -25.72306410	      3.98397911	     -0.80773032
      5.25000000	      4.88963597	      1.12161747	     11.24369802	      2.81621584	      0.92925356	     -0.29223142	    -19.39429069	      6.08910015	     -8.89696754	      3.84042426	     14.78505312	     -2.15589523	      0.00000000	     23.60942106	      4.42969172	     -2.38138483	    -38.27173975	     10.11636757	      0.44453169	      0.00000000	    -25.89507002	      3.79778418	     -0.12216259
